<svg width="76" height="22" viewBox="0 0 76 22" fill="none" xmlns="http://www.w3.org/2000/svg">
<path d="M44.1412 8.8L23.4108 8.8C25.9567 1.87792 13.7793 -7.94607 9.53674e-07 11C13.7793 29.9461 25.9567 20.1221 23.4108 13.2L44.1412 13.2L52.9456 21.3556C53.8731 22.2148 55.3769 22.2148 56.3044 21.3556C57.2319 20.4965 57.2319 19.1035 56.3044 18.2444L50.8588 13.2L53.6412 13.2L62.4456 21.3556C63.3731 22.2148 64.8769 22.2148 65.8044 21.3556C66.7319 20.4965 66.7319 19.1035 65.8044 18.2444L60.3588 13.2H63.1412L71.9456 21.3556C72.8731 22.2148 74.3769 22.2148 75.3044 21.3556C76.2319 20.4965 76.2319 19.1035 75.3044 18.2444L67.4838 11L75.3044 3.75564C76.2319 2.89648 76.2319 1.50352 75.3044 0.644366C74.3769 -0.214788 72.8731 -0.214788 71.9456 0.644366L63.1412 8.8H60.3588L65.8044 3.75564C66.7319 2.89648 66.7319 1.50352 65.8044 0.644366C64.8769 -0.214788 63.3731 -0.214788 62.4456 0.644366L53.6412 8.8L50.8588 8.8L56.3044 3.75564C57.2319 2.89648 57.2319 1.50352 56.3044 0.644366C55.3769 -0.214788 53.8731 -0.214788 52.9456 0.644366L44.1412 8.8Z" fill="url(#paint0_linear_114_57)"/>
<defs>
<linearGradient id="paint0_linear_114_57" x1="-15.2" y1="10.384" x2="76" y2="11" gradientUnits="userSpaceOnUse">
<stop offset="0.350744" stop-color="#FF5C00"/>
<stop offset="1" stop-color="#D00000"/>
</linearGradient>
</defs>
</svg>
