<svg width="40" height="40" viewBox="0 0 40 40" fill="none" xmlns="http://www.w3.org/2000/svg">
<path fill-rule="evenodd" clip-rule="evenodd" d="M28.75 3.11594C30.8305 0.977503 36.0317 4.71977 28.75 9.53125C21.4683 4.71977 26.6695 0.977503 28.75 3.11594ZM22.5 12.5C22.5 16.6421 19.1421 20 15 20C10.8579 20 7.5 16.6421 7.5 12.5C7.5 8.35786 10.8579 5 15 5C19.1421 5 22.5 8.35786 22.5 12.5ZM0 32.5C0 35 2.5 35 2.5 35H27.5C27.5 35 30 35 30 32.5C30 30 27.5 22.5 15 22.5C2.5 22.5 0 30 0 32.5ZM33.75 12.2766C37.2175 8.7125 45.8862 14.9496 33.75 22.9688C21.6139 14.9496 30.2825 8.7125 33.75 12.2766ZM37.5 5.41063C38.887 3.985 42.3545 6.47984 37.5 9.6875C32.6455 6.47984 36.113 3.985 37.5 5.41063Z" fill="url(#paint0_linear_127_74)"/>
<defs>
<linearGradient id="paint0_linear_127_74" x1="43.5" y1="19" x2="-4" y2="23" gradientUnits="userSpaceOnUse">
<stop stop-color="#D30000"/>
<stop offset="1" stop-color="#FF5C00"/>
</linearGradient>
</defs>
</svg>
