<svg width="120" height="120" viewBox="0 0 120 120" fill="none" xmlns="http://www.w3.org/2000/svg">
<circle cx="60" cy="60" r="60" fill="black"/>
<path fill-rule="evenodd" clip-rule="evenodd" d="M46.9288 106.858C46.7858 107.001 46.5707 107.044 46.3839 106.967C46.197 106.889 46.0752 106.707 46.0752 106.505V104.03V102.054H44.1001H41.625C41.4228 102.054 41.2405 101.932 41.1631 101.746C41.0857 101.559 41.1285 101.344 41.2714 101.201L44.9841 97.4877C45.0779 97.3939 45.205 97.3412 45.3377 97.3412H47.8127H50.0807L57.9783 89.4429C58.1736 89.2476 58.4902 89.2476 58.6854 89.4428C58.8807 89.6381 58.8807 89.9547 58.6855 90.15L50.7878 98.0483V100.317V102.792C50.7878 102.924 50.7352 103.052 50.6414 103.145L46.9288 106.858ZM45.3071 101.054H46.3681L49.0808 98.3412H48.0199L45.3071 101.054ZM49.7878 100.109V99.0484L47.0752 101.761V102.822L49.7878 100.109ZM49.7878 101.524L47.0752 104.237V105.298L49.7878 102.585V101.524ZM43.893 101.054L46.6057 98.3412H45.5448L42.832 101.054H43.893ZM79.2514 76.801C79.2514 77.0032 79.1296 77.1855 78.9427 77.2629C78.7559 77.3403 78.5408 77.2975 78.3978 77.1545L75.0388 73.7951L72.0213 76.8129C72.8325 77.5424 73.5221 78.4176 74.0349 79.419C75.4249 82.1339 75.483 85.6492 73.5061 89.5496C71.5449 93.4191 67.5803 97.689 60.8708 102.123L60.1886 102.574L59.5063 102.123C57.7297 100.949 56.1456 99.7862 54.7401 98.6396L60.9575 92.4216C62.4073 90.9716 62.4073 88.6207 60.9575 87.1707C59.5076 85.7207 57.1569 85.7207 55.707 87.1707L49.4407 93.4376C48.356 92.1048 47.5079 90.806 46.871 89.5496C44.8942 85.6492 44.9523 82.1339 46.3423 79.419C48.8682 74.4856 55.687 72.6153 60.1886 76.1391C63.4951 73.5509 68.0516 73.8727 71.239 76.181L74.3317 73.088L70.9726 69.7285C70.8296 69.5855 70.7868 69.3705 70.8642 69.1836C70.9416 68.9968 71.1239 68.875 71.3261 68.875H75.0388H78.7514C79.0276 68.875 79.2514 69.0989 79.2514 69.375V73.088V76.801ZM72.5332 69.875L74.5388 71.8808V69.875H72.5332ZM77.5444 69.875H75.5388V71.8808L77.5444 69.875ZM78.2514 70.5822L76.2458 72.588H78.2514V70.5822ZM76.2458 73.588H78.2514V75.5938L76.2458 73.588Z" fill="#D30000"/>
<path d="M25.1371 35.25L27.5518 20.7045H33.5604C34.6494 20.7045 35.5561 20.9152 36.2805 21.3366C37.005 21.758 37.5187 22.3475 37.8217 23.1051C38.1248 23.8627 38.1934 24.741 38.0277 25.7401C37.8667 26.7486 37.5045 27.6269 36.9411 28.375C36.3823 29.1231 35.6626 29.7031 34.782 30.1151C33.9013 30.527 32.8999 30.733 31.7777 30.733H28.0774L28.5391 27.9631H31.593C32.1281 27.9631 32.5897 27.8707 32.978 27.6861C33.371 27.5014 33.6858 27.2434 33.9226 26.9119C34.1593 26.5805 34.3156 26.1899 34.3913 25.7401C34.4624 25.2902 34.4339 24.902 34.3061 24.5753C34.1783 24.2438 33.9486 23.9882 33.6172 23.8082C33.2905 23.6283 32.8643 23.5384 32.3388 23.5384H30.6058L28.6527 35.25H25.1371ZM38.1644 35.25L39.9826 24.3409H43.3562L43.0224 26.3295H43.136C43.4532 25.6098 43.8675 25.0748 44.3789 24.7244C44.8903 24.3693 45.4442 24.1918 46.0408 24.1918C46.2018 24.1918 46.3628 24.2036 46.5238 24.2273C46.6895 24.2462 46.8458 24.2746 46.9925 24.3125L46.4812 27.3381C46.3202 27.2765 46.1095 27.2315 45.8491 27.2031C45.5887 27.17 45.3519 27.1534 45.1388 27.1534C44.7269 27.1534 44.3434 27.2457 43.9883 27.4304C43.6379 27.6103 43.3396 27.8636 43.0934 28.1903C42.8519 28.5123 42.6933 28.8911 42.6175 29.3267L41.6374 35.25H38.1644ZM51.1012 35.456C49.9506 35.456 49.0013 35.2192 48.2532 34.7457C47.5098 34.2723 46.9866 33.6117 46.6836 32.7642C46.3806 31.9167 46.3214 30.9318 46.506 29.8097C46.6907 28.6922 47.0719 27.7121 47.6495 26.8693C48.2272 26.0265 48.9658 25.3707 49.8654 24.902C50.765 24.4332 51.7854 24.1989 52.9265 24.1989C54.0723 24.1989 55.0169 24.4356 55.7603 24.9091C56.5084 25.3826 57.034 26.0431 57.337 26.8906C57.6448 27.7382 57.7063 28.7254 57.5217 29.8523C57.337 30.9697 56.9535 31.9498 56.3711 32.7926C55.7887 33.6307 55.0501 34.2841 54.1552 34.7528C53.2603 35.2216 52.2423 35.456 51.1012 35.456ZM51.4918 32.8352C51.918 32.8352 52.2991 32.7074 52.6353 32.4517C52.9762 32.196 53.2627 31.8385 53.4947 31.3793C53.7267 30.92 53.8924 30.3873 53.9918 29.7812C54.0913 29.1847 54.1007 28.6615 54.0202 28.2116C53.9445 27.7571 53.7835 27.4044 53.5373 27.1534C53.2911 26.8977 52.9573 26.7699 52.5359 26.7699C52.1097 26.7699 51.7262 26.9001 51.3853 27.1605C51.0444 27.4162 50.7579 27.7737 50.5259 28.233C50.2987 28.6875 50.1353 29.2202 50.0359 29.831C49.9364 30.4276 49.9246 30.9508 50.0004 31.4006C50.0761 31.8504 50.2395 32.2031 50.4904 32.4588C50.7414 32.7098 51.0752 32.8352 51.4918 32.8352ZM60.217 24.3409H63.69L61.7937 35.7045C61.6422 36.5994 61.3368 37.312 60.8775 37.8423C60.4229 38.3774 59.8406 38.7609 59.1303 38.9929C58.4201 39.2249 57.6104 39.3409 56.7013 39.3409C56.5972 39.3409 56.4906 39.3385 56.3817 39.3338C56.2728 39.3291 56.1568 39.3243 56.0337 39.3196L56.467 36.6847C56.5427 36.6941 56.6161 36.7012 56.6871 36.706C56.7582 36.7107 56.8268 36.7131 56.8931 36.7131C57.3713 36.7131 57.717 36.6231 57.93 36.4432C58.1431 36.268 58.2804 35.9981 58.342 35.6335L60.217 24.3409ZM62.1843 23.0696C61.6919 23.0696 61.2918 22.9062 60.984 22.5795C60.6763 22.2528 60.5555 21.8622 60.6218 21.4077C60.6928 20.9484 60.9248 20.5578 61.3178 20.2358C61.7156 19.9138 62.1583 19.7528 62.646 19.7528C63.1384 19.7528 63.5337 19.9138 63.832 20.2358C64.1351 20.5578 64.2558 20.9484 64.1942 21.4077C64.1327 21.8622 63.9054 22.2528 63.5124 22.5795C63.1194 22.9062 62.6767 23.0696 62.1843 23.0696ZM69.1534 35.456C68.0123 35.456 67.0653 35.2311 66.3125 34.7812C65.5644 34.3267 65.0388 33.6804 64.7358 32.8423C64.4328 31.9995 64.3783 30.9981 64.5724 29.8381C64.7618 28.7112 65.1477 27.7263 65.7301 26.8835C66.3172 26.036 67.0559 25.3778 67.946 24.9091C68.8362 24.4356 69.8281 24.1989 70.9219 24.1989C71.6984 24.1989 72.3873 24.3196 72.9886 24.5611C73.59 24.8026 74.0871 25.1624 74.4801 25.6406C74.8731 26.1141 75.1406 26.6965 75.2827 27.3878C75.4247 28.0791 75.42 28.8722 75.2685 29.767L75.1335 30.6335H65.6591L65.9787 28.6165H72.2287C72.2855 28.2472 72.2547 27.9181 72.1364 27.6293C72.018 27.3404 71.8262 27.1155 71.5611 26.9545C71.3007 26.7888 70.9811 26.706 70.6023 26.706C70.2188 26.706 69.8589 26.7959 69.5227 26.9759C69.1913 27.151 68.9096 27.3878 68.6776 27.6861C68.4455 27.9844 68.294 28.3205 68.223 28.6946L67.8466 30.7614C67.7708 31.2206 67.7921 31.6136 67.9105 31.9403C68.0289 32.267 68.2325 32.518 68.5213 32.6932C68.8101 32.8636 69.1818 32.9489 69.6364 32.9489C69.9394 32.9489 70.2235 32.9086 70.4886 32.8281C70.7538 32.7429 70.9905 32.6174 71.1989 32.4517C71.4119 32.2812 71.5848 32.0753 71.7173 31.8338L74.8849 31.9261C74.6293 32.6411 74.2339 33.2637 73.6989 33.794C73.1638 34.3196 72.5104 34.7292 71.7386 35.0227C70.9716 35.3116 70.1098 35.456 69.1534 35.456ZM81.1971 35.456C80.0465 35.456 79.0972 35.2192 78.3491 34.7457C77.6057 34.2723 77.0849 33.6141 76.7866 32.7713C76.4883 31.9238 76.4338 30.9437 76.6232 29.831C76.8031 28.7135 77.1843 27.7334 77.7667 26.8906C78.3491 26.0431 79.0924 25.3826 79.9968 24.9091C80.9012 24.4356 81.9239 24.1989 83.065 24.1989C84.0735 24.1989 84.921 24.3812 85.6076 24.7457C86.2989 25.1103 86.7984 25.6264 87.1062 26.294C87.4187 26.9569 87.511 27.7358 87.3832 28.6307H84.1374C84.1658 28.0767 84.0522 27.6411 83.7965 27.3239C83.5408 27.0019 83.1692 26.8409 82.6815 26.8409C82.2695 26.8409 81.8907 26.9545 81.5451 27.1818C81.2042 27.4044 80.913 27.7358 80.6715 28.1761C80.4348 28.6117 80.2643 29.1515 80.1602 29.7955C80.056 30.4394 80.0489 30.9839 80.1388 31.429C80.2335 31.8693 80.4111 32.2031 80.6715 32.4304C80.9367 32.6529 81.2728 32.7642 81.68 32.7642C82.002 32.7642 82.3003 32.6955 82.5749 32.5582C82.8496 32.4209 83.0887 32.2197 83.2923 31.9545C83.4959 31.6847 83.6545 31.358 83.7681 30.9744H87.0067C86.8221 31.8788 86.4646 32.6671 85.9343 33.3395C85.4087 34.0071 84.7435 34.5279 83.9386 34.902C83.1336 35.2713 82.2198 35.456 81.1971 35.456ZM96.0426 24.3409L95.6094 26.8977H88.7273L89.1605 24.3409H96.0426ZM91.0284 21.7273H94.5014L92.8253 31.8196C92.7921 32.0327 92.7969 32.2055 92.8395 32.3381C92.8868 32.4659 92.9721 32.5582 93.0952 32.6151C93.223 32.6671 93.3793 32.6932 93.5639 32.6932C93.6918 32.6932 93.8338 32.679 93.9901 32.6506C94.1463 32.6222 94.2647 32.6009 94.3452 32.5866L94.4588 35.0938C94.2741 35.1458 94.0256 35.205 93.7131 35.2713C93.4053 35.3423 93.0455 35.3873 92.6335 35.4062C91.8002 35.4394 91.1113 35.3423 90.5668 35.1151C90.027 34.883 89.6458 34.5232 89.4233 34.0355C89.2055 33.5478 89.1629 32.937 89.2955 32.2031L91.0284 21.7273ZM46.9233 44.7045L44.5085 59.25H41.5256L37.1435 50.8551H37.044L35.6449 59.25H32.1293L34.544 44.7045H37.5696L41.9162 53.0852H42.0369L43.4148 44.7045H46.9233ZM49.766 59.4347C49.0747 59.4347 48.4781 59.3187 47.9762 59.0866C47.479 58.8499 47.1145 58.4924 46.8825 58.0142C46.6552 57.536 46.6007 56.9394 46.7191 56.2244C46.8233 55.6184 47.015 55.1094 47.2944 54.6974C47.5785 54.2808 47.9265 53.9422 48.3384 53.6818C48.7551 53.4214 49.2191 53.2225 49.7305 53.0852C50.2418 52.9479 50.7769 52.8556 51.3356 52.8082C51.9606 52.7514 52.4672 52.6899 52.8555 52.6236C53.2485 52.5573 53.542 52.465 53.7362 52.3466C53.9303 52.2235 54.0487 52.053 54.0913 51.8352V51.7997C54.1481 51.4351 54.07 51.1534 53.8569 50.9545C53.6438 50.7557 53.3242 50.6562 52.8981 50.6562C52.4435 50.6562 52.0553 50.7557 51.7333 50.9545C51.4113 51.1534 51.1864 51.428 51.0586 51.7784L47.8768 51.6648C48.0756 51.0019 48.4165 50.41 48.8995 49.8892C49.3825 49.3636 49.9956 48.9517 50.739 48.6534C51.4871 48.3504 52.3512 48.1989 53.3313 48.1989C54.0226 48.1989 54.6476 48.2817 55.2063 48.4474C55.765 48.6084 56.2362 48.8452 56.6197 49.1577C57.0079 49.4654 57.2849 49.8442 57.4506 50.294C57.6164 50.7438 57.6519 51.2576 57.5572 51.8352L56.3143 59.25H53.0472L53.3029 57.7301H53.2177C52.962 58.0994 52.6613 58.4119 52.3157 58.6676C51.9748 58.9233 51.5913 59.1151 51.1651 59.2429C50.739 59.3707 50.2726 59.4347 49.766 59.4347ZM51.229 57.1619C51.5936 57.1619 51.9393 57.0862 52.266 56.9347C52.5927 56.7831 52.8673 56.5748 53.0898 56.3097C53.3171 56.0398 53.4615 55.7273 53.5231 55.3722L53.6864 54.3352C53.587 54.3873 53.4615 54.4347 53.31 54.4773C53.1585 54.5199 52.9975 54.5601 52.8271 54.598C52.6566 54.6312 52.4814 54.6643 52.3015 54.6974C52.1263 54.7259 51.9582 54.7519 51.7972 54.7756C51.4563 54.8277 51.1604 54.9081 50.9094 55.017C50.6585 55.1259 50.4573 55.268 50.3058 55.4432C50.159 55.6136 50.069 55.8172 50.0359 56.054C49.979 56.4091 50.0619 56.6837 50.2844 56.8778C50.507 57.0672 50.8219 57.1619 51.229 57.1619ZM58.4592 59.25L60.2773 48.3409H63.5799L63.2532 50.3438H63.3739C63.7054 49.6809 64.1741 49.1577 64.7802 48.7741C65.3862 48.3906 66.0633 48.1989 66.8114 48.1989C67.5643 48.1989 68.1774 48.393 68.6509 48.7812C69.1291 49.1695 69.3872 49.6903 69.4251 50.3438H69.5387C69.8512 49.6951 70.3342 49.1766 70.9876 48.7884C71.6457 48.3954 72.3796 48.1989 73.1893 48.1989C74.212 48.1989 74.9909 48.5303 75.5259 49.1932C76.0657 49.8513 76.2385 50.7557 76.0444 51.9062L74.8228 59.25H71.3569L72.4648 52.7017C72.5406 52.1572 72.4601 51.7429 72.2234 51.4588C71.9914 51.17 71.6528 51.0256 71.2077 51.0256C70.7295 51.0256 70.3294 51.1795 70.0075 51.4872C69.6902 51.795 69.4937 52.2116 69.418 52.7372L68.3171 59.25H64.9719L66.087 52.6662C66.158 52.1596 66.0799 51.7595 65.8526 51.4659C65.6301 51.1723 65.2915 51.0256 64.837 51.0256C64.5387 51.0256 64.2617 51.099 64.006 51.2457C63.7504 51.3878 63.5349 51.5914 63.3597 51.8565C63.1893 52.1217 63.078 52.4342 63.0259 52.794L61.9322 59.25H58.4592ZM82.0245 59.456C80.8834 59.456 79.9364 59.2311 79.1836 58.7812C78.4355 58.3267 77.9099 57.6804 77.6069 56.8423C77.3039 55.9995 77.2494 54.9981 77.4435 53.8381C77.6329 52.7112 78.0188 51.7263 78.6012 50.8835C79.1883 50.036 79.927 49.3778 80.8171 48.9091C81.7073 48.4356 82.6992 48.1989 83.793 48.1989C84.5695 48.1989 85.2584 48.3196 85.8597 48.5611C86.4611 48.8026 86.9582 49.1624 87.3512 49.6406C87.7442 50.1141 88.0117 50.6965 88.1538 51.3878C88.2958 52.0791 88.2911 52.8722 88.1396 53.767L88.0046 54.6335H78.5302L78.8498 52.6165H85.0998C85.1566 52.2472 85.1258 51.9181 85.0075 51.6293C84.8891 51.3404 84.6973 51.1155 84.4322 50.9545C84.1718 50.7888 83.8522 50.706 83.4734 50.706C83.0898 50.706 82.73 50.7959 82.3938 50.9759C82.0624 51.151 81.7807 51.3878 81.5487 51.6861C81.3166 51.9844 81.1651 52.3205 81.0941 52.6946L80.7177 54.7614C80.6419 55.2206 80.6632 55.6136 80.7816 55.9403C80.9 56.267 81.1036 56.518 81.3924 56.6932C81.6812 56.8636 82.0529 56.9489 82.5075 56.9489C82.8105 56.9489 83.0946 56.9086 83.3597 56.8281C83.6249 56.7429 83.8616 56.6174 84.07 56.4517C84.283 56.2812 84.4558 56.0753 84.5884 55.8338L87.756 55.9261C87.5004 56.6411 87.105 57.2637 86.57 57.794C86.0349 58.3196 85.3815 58.7292 84.6097 59.0227C83.8427 59.3116 82.9809 59.456 82.0245 59.456Z" fill="#D30000"/>
</svg>
