<svg width="334" height="79" viewBox="0 0 334 79" fill="none" xmlns="http://www.w3.org/2000/svg">
<path fill-rule="evenodd" clip-rule="evenodd" d="M273.398 70.9789C273.255 71.122 273.04 71.1649 272.853 71.0875C272.666 71.0101 272.544 70.8278 272.544 70.6255V66.3505V62.5755H268.772H264.5C264.298 62.5755 264.116 62.4537 264.038 62.2669C263.961 62.0801 264.003 61.8651 264.146 61.722L270.554 55.3095C270.648 55.2156 270.775 55.1629 270.908 55.1629H275.18H279.245L292.982 41.4156C293.177 41.2203 293.494 41.2202 293.689 41.4154C293.885 41.6105 293.885 41.9271 293.689 42.1225L279.952 55.8699V59.9379V64.213C279.952 64.3455 279.899 64.4726 279.806 64.5664L273.398 70.9789ZM269.978 61.5755H272.837L278.245 56.1629H275.387L269.978 61.5755ZM278.952 59.7309V56.8706L273.544 62.2825V65.1428L278.952 59.7309ZM278.952 61.1457L273.544 66.5575V69.4178L278.952 64.006V61.1457ZM268.565 61.5755L273.973 56.1629H271.115L265.707 61.5755H268.565ZM329.08 19.3251C329.08 19.5274 328.958 19.7097 328.771 19.7871C328.584 19.8644 328.369 19.8216 328.226 19.6785L322.172 13.6199L316.69 19.1052C318.209 20.4116 319.497 22.0056 320.439 23.8466C322.838 28.5354 322.938 34.6066 319.526 41.3427C316.141 48.0256 309.298 55.4001 297.718 63.0575L296.54 63.8361L295.363 63.0575C292.297 61.0299 289.562 59.0221 287.137 57.0417L297.868 46.303C300.37 43.7987 300.37 39.7385 297.868 37.2343C295.365 34.73 291.308 34.73 288.805 37.2343L277.99 48.0576C276.118 45.7557 274.654 43.5128 273.555 41.3427C270.143 34.6066 270.243 28.5354 272.642 23.8466C277.002 15.3264 288.771 12.0963 296.54 18.1821C302.35 13.6315 310.396 14.2896 315.908 18.4731L321.465 12.9126L315.41 6.85343C315.267 6.7104 315.224 6.49537 315.302 6.30858C315.379 6.12179 315.561 6 315.764 6H322.172H328.58C328.856 6 329.08 6.22386 329.08 6.5V12.9126V19.3251ZM316.97 7L321.672 11.7048V7H316.97ZM327.373 7H322.672V11.7048L327.373 7ZM328.08 7.70772L323.378 12.4126H328.08V7.70772ZM323.378 13.4126H328.08V18.1174L323.378 13.4126Z" fill="#D30000"/>
<g filter="url(#filter0_d_100_19)">
<path d="M44.1339 57H35.0657L52.6396 22.0909H63.8725L69.8555 57H60.7873L56.9521 30.8864H56.6794L44.1339 57ZM45.2248 43.2614H64.1794L63.0885 49.6705H44.1339L45.2248 43.2614ZM73.614 57L79.4095 22.0909H93.8299C96.4436 22.0909 98.6254 22.5625 100.375 23.5057C102.125 24.4375 103.37 25.7784 104.108 27.5284C104.847 29.267 105.017 31.3295 104.62 33.7159C104.233 36.125 103.37 38.1761 102.029 39.8693C100.699 41.5511 98.9833 42.8352 96.8811 43.7216C94.7902 44.608 92.4152 45.0511 89.7561 45.0511H80.6367L81.7617 38.4034H89.3129C90.5742 38.4034 91.6652 38.2386 92.5856 37.9091C93.5061 37.5682 94.239 37.0568 94.7845 36.375C95.3413 35.6818 95.7106 34.7955 95.8924 33.7159C96.0629 32.6364 95.9833 31.7443 95.6538 31.0398C95.3356 30.3239 94.7731 29.7898 93.9663 29.4375C93.1708 29.0739 92.1481 28.892 90.8981 28.892H86.739L82.0515 57H73.614ZM95.9095 41.0455L101.961 57H92.7561L86.8924 41.0455H95.9095ZM141.123 34.7386H132.702C132.748 33.8523 132.662 33.0625 132.446 32.3693C132.23 31.6648 131.89 31.0625 131.424 30.5625C130.958 30.0511 130.378 29.6648 129.685 29.4034C128.992 29.142 128.185 29.0114 127.265 29.0114C125.503 29.0114 123.907 29.4489 122.475 30.3239C121.043 31.1989 119.844 32.4602 118.878 34.108C117.912 35.7557 117.236 37.733 116.85 40.0398C116.498 42.267 116.503 44.125 116.867 45.6136C117.242 47.1023 117.935 48.2216 118.946 48.9716C119.958 49.7102 121.242 50.0795 122.799 50.0795C123.81 50.0795 124.748 49.9602 125.611 49.7216C126.486 49.4716 127.276 49.1136 127.98 48.6477C128.685 48.1818 129.293 47.6193 129.804 46.9602C130.327 46.2898 130.73 45.5455 131.015 44.7273H139.503C139.083 46.2614 138.39 47.7898 137.424 49.3125C136.469 50.8239 135.265 52.1932 133.81 53.4205C132.355 54.6477 130.668 55.6307 128.748 56.3693C126.827 57.108 124.691 57.4773 122.338 57.4773C119.123 57.4773 116.35 56.7557 114.02 55.3125C111.702 53.8693 110.026 51.7784 108.992 49.0398C107.969 46.2898 107.776 42.9602 108.412 39.0511C109.037 35.267 110.27 32.0795 112.111 29.4886C113.963 26.8977 116.213 24.9375 118.861 23.608C121.52 22.2784 124.355 21.6136 127.367 21.6136C129.549 21.6136 131.509 21.9091 133.248 22.5C134.998 23.0795 136.48 23.9318 137.696 25.0568C138.912 26.1705 139.816 27.5398 140.407 29.1648C141.009 30.7898 141.248 32.6477 141.123 34.7386ZM142.286 57L148.081 22.0909H156.519L154.201 36.1023H167.956L170.275 22.0909H178.695L172.9 57H164.479L166.797 42.9716H153.042L150.723 57H142.286ZM178.192 57L183.988 22.0909H208.329L207.169 28.9432H191.266L190.107 36.1023H204.766L203.607 42.9716H188.948L187.789 50.1477H203.692L202.533 57H178.192ZM207.817 57L213.613 22.0909H228.033C230.647 22.0909 232.829 22.5625 234.579 23.5057C236.329 24.4375 237.573 25.7784 238.311 27.5284C239.05 29.267 239.221 31.3295 238.823 33.7159C238.436 36.125 237.573 38.1761 236.232 39.8693C234.902 41.5511 233.186 42.8352 231.084 43.7216C228.993 44.608 226.618 45.0511 223.959 45.0511H214.84L215.965 38.4034H223.516C224.777 38.4034 225.868 38.2386 226.789 37.9091C227.709 37.5682 228.442 37.0568 228.988 36.375C229.544 35.6818 229.914 34.7955 230.096 33.7159C230.266 32.6364 230.186 31.7443 229.857 31.0398C229.539 30.3239 228.976 29.7898 228.169 29.4375C227.374 29.0739 226.351 28.892 225.101 28.892H220.942L216.255 57H207.817ZM230.113 41.0455L236.164 57H226.959L221.096 41.0455H230.113Z" fill="url(#paint0_linear_100_19)"/>
</g>
<defs>
<filter id="filter0_d_100_19" x="31.0657" y="21.6136" width="212.354" height="43.8636" filterUnits="userSpaceOnUse" color-interpolation-filters="sRGB">
<feFlood flood-opacity="0" result="BackgroundImageFix"/>
<feColorMatrix in="SourceAlpha" type="matrix" values="0 0 0 0 0 0 0 0 0 0 0 0 0 0 0 0 0 0 127 0" result="hardAlpha"/>
<feOffset dy="4"/>
<feGaussianBlur stdDeviation="2"/>
<feComposite in2="hardAlpha" operator="out"/>
<feColorMatrix type="matrix" values="0 0 0 0 0 0 0 0 0 0 0 0 0 0 0 0 0 0 0.25 0"/>
<feBlend mode="normal" in2="BackgroundImageFix" result="effect1_dropShadow_100_19"/>
<feBlend mode="normal" in="SourceGraphic" in2="effect1_dropShadow_100_19" result="shape"/>
</filter>
<linearGradient id="paint0_linear_100_19" x1="81.5" y1="57" x2="262" y2="15.5" gradientUnits="userSpaceOnUse">
<stop stop-color="#FF5C00"/>
<stop offset="1" stop-color="#D00000"/>
</linearGradient>
</defs>
</svg>
