<svg width="50" height="50" viewBox="0 0 50 50" fill="none" xmlns="http://www.w3.org/2000/svg">
<path d="M20.3125 14.0056C25.5137 8.77834 38.5167 17.9261 20.3125 29.6875C2.10827 17.9261 15.1113 8.77834 20.3125 14.0056Z" fill="url(#paint0_linear_106_41)"/>
<path d="M40.625 20.3125C40.625 24.8069 39.1654 28.9603 36.6942 32.3246C36.8192 32.4168 36.9389 32.5195 37.052 32.6326L49.0847 44.6653C50.3051 45.8857 50.3051 47.8643 49.0847 49.0847C47.8643 50.3051 45.8857 50.3051 44.6653 49.0847L32.6326 37.052C32.5195 36.9389 32.4168 36.8192 32.3246 36.6942L32.3274 36.6922C28.9625 39.1646 24.8081 40.625 20.3125 40.625C9.09421 40.625 0 31.5308 0 20.3125C0 9.09421 9.09421 0 20.3125 0C31.5308 0 40.625 9.09421 40.625 20.3125ZM20.3125 37.5C29.8049 37.5 37.5 29.8049 37.5 20.3125C37.5 10.8201 29.8049 3.125 20.3125 3.125C10.8201 3.125 3.125 10.8201 3.125 20.3125C3.125 29.8049 10.8201 37.5 20.3125 37.5Z" fill="url(#paint1_linear_106_41)"/>
<defs>
<linearGradient id="paint0_linear_106_41" x1="-3" y1="31.5" x2="47.5" y2="16" gradientUnits="userSpaceOnUse">
<stop stop-color="#FF5C00"/>
<stop offset="1" stop-color="#D30000"/>
</linearGradient>
<linearGradient id="paint1_linear_106_41" x1="-3" y1="31.5" x2="47.5" y2="16" gradientUnits="userSpaceOnUse">
<stop stop-color="#FF5C00"/>
<stop offset="1" stop-color="#D30000"/>
</linearGradient>
</defs>
</svg>
