<svg width="40" height="40" viewBox="0 0 40 40" fill="none" xmlns="http://www.w3.org/2000/svg">
<path d="M39.9106 1.71427C40.0963 1.25 39.9874 0.719731 39.6339 0.366153C39.2803 0.0125747 38.75 -0.0962678 38.2857 0.0894406L1.91798 14.6365C0.499343 15.204 0.318659 17.139 1.6077 17.9593L14.0945 25.9055L17.9227 31.9211C18.2933 32.5036 19.0659 32.6752 19.6484 32.3046C20.2308 31.934 20.4025 31.1614 20.0318 30.5789L16.5929 25.1749L35.3277 6.44013L30.5894 18.2858C30.333 18.9268 30.6448 19.6542 31.2857 19.9106C31.9267 20.167 32.6542 19.8553 32.9106 19.2143L39.9106 1.71427ZM33.5599 4.67237L14.8251 23.4071L3.97869 16.5048L33.5599 4.67237Z" fill="white"/>
<path d="M40 31.25C40 36.0825 36.0825 40 31.25 40C26.4175 40 22.5 36.0825 22.5 31.25C22.5 26.4175 26.4175 22.5 31.25 22.5C36.0825 22.5 40 26.4175 40 31.25ZM35.0181 27.0531C34.4261 26.6979 33.6583 26.8899 33.3031 27.4819L30.3768 32.3591L29.0089 30.9911C28.5207 30.503 27.7293 30.503 27.2411 30.9911C26.753 31.4793 26.753 32.2707 27.2411 32.7589L29.1751 34.6929C30.0376 35.5554 31.4811 35.3777 32.1087 34.3317L35.4469 28.7681C35.8021 28.1761 35.6101 27.4083 35.0181 27.0531Z" fill="white"/>
</svg>
