<svg width="35" height="35" viewBox="0 0 35 35" fill="none" xmlns="http://www.w3.org/2000/svg">
<path d="M21.8752 1.09662C21.8752 0.49256 21.3829 0 20.7757 0H14.2247C13.6175 0 13.1252 0.49256 13.1252 1.09662C13.1252 1.69752 12.6355 2.1875 12.0315 2.1875C11.4274 2.1875 10.9377 2.67462 10.9377 3.27552V4.375C10.9377 4.97906 11.43 5.46875 12.0372 5.46875H22.9632C23.5704 5.46875 24.0627 4.97906 24.0627 4.375V3.27552C24.0627 2.67463 23.573 2.1875 22.969 2.1875C22.3649 2.1875 21.8752 1.69752 21.8752 1.09662Z" fill="url(#paint0_linear_125_64)"/>
<path d="M7.68524 4.375C7.078 4.375 6.58573 4.86469 6.58573 5.46875V31.7188C6.58573 32.3228 7.078 32.8125 7.68524 32.8125H27.4764C28.0836 32.8125 28.5759 32.3228 28.5759 31.7188V5.46875C28.5759 4.86469 28.0836 4.375 27.4764 4.375H26.3769C25.7696 4.375 25.2773 3.88531 25.2773 3.28125C25.2773 2.67719 25.7696 2.1875 26.3769 2.1875H27.4764C29.2981 2.1875 30.7749 3.65657 30.7749 5.46875V31.7188C30.7749 33.5309 29.2981 35 27.4764 35H7.68524C5.86352 35 4.38672 33.5309 4.38672 31.7188V5.46875C4.38672 3.65657 5.86352 2.1875 7.68524 2.1875H8.78475C9.39199 2.1875 9.88425 2.67719 9.88425 3.28125C9.88425 3.88531 9.39199 4.375 8.78475 4.375H7.68524Z" fill="url(#paint1_linear_125_64)"/>
<path d="M17.5001 14.1789C21.1409 10.5198 30.243 16.9233 17.5001 25.1562C4.75713 16.9233 13.8592 10.5198 17.5001 14.1789Z" fill="url(#paint2_linear_125_64)"/>
<defs>
<linearGradient id="paint0_linear_125_64" x1="41.125" y1="17.5" x2="-3.50003" y2="17.5" gradientUnits="userSpaceOnUse">
<stop stop-color="#D30000"/>
<stop offset="1" stop-color="#FF5C00"/>
</linearGradient>
<linearGradient id="paint1_linear_125_64" x1="41.125" y1="17.5" x2="-3.50003" y2="17.5" gradientUnits="userSpaceOnUse">
<stop stop-color="#D30000"/>
<stop offset="1" stop-color="#FF5C00"/>
</linearGradient>
<linearGradient id="paint2_linear_125_64" x1="41.125" y1="17.5" x2="-3.50003" y2="17.5" gradientUnits="userSpaceOnUse">
<stop stop-color="#D30000"/>
<stop offset="1" stop-color="#FF5C00"/>
</linearGradient>
</defs>
</svg>
