<svg width="40" height="40" viewBox="0 0 40 40" fill="none" xmlns="http://www.w3.org/2000/svg">
<path d="M16.2501 32.5C18.7741 32.5 21.1638 31.9245 23.295 30.8976C24.2005 30.4613 25.0593 29.9435 25.8619 29.3538L25.8597 29.3554C25.9335 29.4554 26.0156 29.5511 26.1061 29.6416L35.7323 39.2678C36.7086 40.2441 38.2915 40.2441 39.2678 39.2678C40.2441 38.2915 40.2441 36.7086 39.2678 35.7322L29.6416 26.1061C29.5511 26.0156 29.4554 25.9335 29.3554 25.8597C31.3323 23.1683 32.5 19.8455 32.5 16.25C32.5 12.6566 31.3337 9.33565 29.3589 6.64503C27.0181 3.45569 23.5414 1.15203 19.5249 0.330142C18.4671 0.113678 17.3718 0 16.25 0C7.27537 0 0 7.27537 0 16.25C0 19.3644 0.876156 22.2742 2.39543 24.7464C5.25414 29.398 10.3899 32.5 16.2501 32.5ZM16.25 11.2045C20.411 7.02267 30.8134 14.3409 16.25 23.75C1.68662 14.3409 12.089 7.02267 16.25 11.2045Z" fill="url(#paint0_linear_140_23)"/>
<defs>
<linearGradient id="paint0_linear_140_23" x1="-5.5" y1="28" x2="40" y2="15" gradientUnits="userSpaceOnUse">
<stop stop-color="#FF5C00"/>
<stop offset="1" stop-color="#D30000"/>
</linearGradient>
</defs>
</svg>
